<svg width="141.000000" height="41.000000" viewBox="0 0 141 41" fill="none" xmlns="http://www.w3.org/2000/svg" xmlns:xlink="http://www.w3.org/1999/xlink">
	<desc>
			Created with Pixso.
	</desc>
	<defs>
		<clipPath id="clip1449_731">
			<rect id="Ресурс 1 1" width="141.000000" height="41.000000" fill="white" fill-opacity="0"/>
		</clipPath>
	</defs>
	<rect id="Ресурс 1 1" width="141.000000" height="41.000000" fill="#FFFFFF" fill-opacity="0"/>
	<g clip-path="url(#clip1449_731)">
		<path id="Vector" d="M5.09 18.13C5.4 18.66 5.86 19.08 6.41 19.36C6.97 19.66 7.59 19.81 8.22 19.81C8.76 19.81 9.3 19.73 9.81 19.56C10.3 19.39 10.77 19.16 11.19 18.86C11.61 18.57 11.97 18.2 12.25 17.77L12.25 22.11C11.72 22.52 11.11 22.82 10.47 23.01C9.63 23.26 8.75 23.38 7.87 23.35C6.47 23.38 5.09 23.07 3.83 22.47C2.68 21.91 1.71 21.06 1.02 19.98C0.32 18.87 -0.03 17.57 2.47e-5 16.26C-0.04 14.94 0.32 13.64 1.02 12.51C1.71 11.45 2.68 10.6 3.83 10.05C5.09 9.44 6.47 9.14 7.87 9.16C8.75 9.14 9.63 9.26 10.47 9.5C11.1 9.69 11.7 9.97 12.25 10.34L12.25 14.72C11.97 14.28 11.6 13.91 11.17 13.63C10.73 13.33 10.24 13.1 9.73 12.95C9.24 12.79 8.74 12.71 8.22 12.71C7.59 12.71 6.96 12.87 6.41 13.18C5.86 13.48 5.4 13.92 5.09 14.45C4.77 15 4.6 15.63 4.61 16.26C4.59 16.91 4.76 17.56 5.09 18.13Z" fill="#000000" fill-opacity="1.000000" fill-rule="nonzero"/>
		<path id="Vector" d="M19.83 0L19.83 23.06L15.33 23.06L15.33 0L19.83 0Z" fill="#000000" fill-opacity="1.000000" fill-rule="nonzero"/>
		<path id="Vector" d="M23.67 2.61C24.19 2.18 24.84 1.95 25.51 1.95C26.19 1.95 26.84 2.18 27.35 2.61C27.6 2.83 27.8 3.09 27.93 3.39C28.06 3.69 28.12 4.02 28.11 4.34C28.13 4.68 28.06 5.01 27.93 5.32C27.8 5.62 27.6 5.9 27.35 6.12C26.84 6.56 26.19 6.8 25.51 6.8C24.84 6.8 24.19 6.56 23.67 6.12C23.42 5.9 23.22 5.63 23.08 5.32C22.95 5.01 22.89 4.68 22.9 4.34C22.89 4.01 22.96 3.69 23.09 3.39C23.22 3.09 23.42 2.82 23.67 2.61ZM27.67 9.46L27.67 23.06L23.35 23.06L23.35 9.46L27.67 9.46Z" fill="#000000" fill-opacity="1.000000" fill-rule="nonzero"/>
		<path id="Vector" d="M35.42 18.13C35.74 18.66 36.19 19.08 36.74 19.36C37.3 19.66 37.92 19.81 38.56 19.81C39.1 19.81 39.63 19.73 40.14 19.56C40.63 19.39 41.1 19.16 41.53 18.86C41.96 18.57 42.33 18.2 42.61 17.77L42.61 22.11C42.08 22.52 41.48 22.82 40.84 23.01C39.99 23.26 39.12 23.38 38.23 23.35C36.83 23.38 35.43 23.08 34.16 22.47C33.02 21.91 32.05 21.05 31.37 19.98C30.67 18.87 30.32 17.57 30.35 16.26C30.32 14.94 30.67 13.64 31.37 12.51C32.06 11.45 33.02 10.6 34.16 10.05C35.42 9.44 36.81 9.14 38.2 9.16C39.09 9.14 39.96 9.26 40.81 9.5C41.44 9.69 42.04 9.97 42.59 10.34L42.59 14.72C42.3 14.28 41.93 13.91 41.5 13.63C41.06 13.33 40.58 13.1 40.07 12.95C39.58 12.79 39.07 12.71 38.56 12.71C37.92 12.71 37.29 12.87 36.74 13.18C36.19 13.49 35.73 13.93 35.42 14.47C35.11 15.01 34.95 15.63 34.96 16.26C34.94 16.91 35.1 17.56 35.42 18.13Z" fill="#000000" fill-opacity="1.000000" fill-rule="nonzero"/>
		<path id="Vector" d="M49.93 0L49.93 23.06L45.63 23.06L45.63 0L49.93 0ZM60.2 9.46L54.39 15.08L60.79 23.06L55.55 23.06L49.04 15.08L54.87 9.46L60.2 9.46Z" fill="#000000" fill-opacity="1.000000" fill-rule="nonzero"/>
		<path id="Vector" d="M67.09 23.06L62.59 23.06L62.59 0L67.09 0L67.09 23.06ZM71.03 12.92C70.85 12.69 70.61 12.51 70.34 12.39C70.07 12.28 69.78 12.24 69.49 12.27C69.05 12.25 68.62 12.36 68.25 12.58C67.9 12.78 67.61 13.08 67.42 13.43C67.21 13.85 67.1 14.31 67.12 14.78L66.35 14.78C66.33 13.77 66.52 12.76 66.88 11.82C67.21 10.98 67.77 10.25 68.49 9.72C69.31 9.17 70.28 8.9 71.26 8.94C72.2 8.89 73.14 9.1 73.97 9.53C74.66 9.93 75.18 10.56 75.47 11.3C75.81 12.21 75.97 13.17 75.94 14.14L75.94 23.06L71.44 23.06L71.44 14.78C71.49 14.13 71.35 13.48 71.03 12.92Z" fill="#000000" fill-opacity="1.000000" fill-rule="nonzero"/>
		<path id="Vector" d="M79.46 12.5C80.15 11.44 81.13 10.59 82.27 10.05C83.52 9.44 84.89 9.14 86.27 9.16C87.65 9.14 89.01 9.44 90.25 10.05C91.39 10.6 92.35 11.46 93.03 12.53C93.73 13.66 94.08 14.96 94.05 16.29C94.08 17.6 93.73 18.9 93.03 20.01C92.35 21.08 91.39 21.94 90.25 22.5C89.01 23.1 87.65 23.41 86.27 23.38C84.88 23.4 83.52 23.08 82.27 22.47C81.11 21.91 80.13 21.03 79.46 19.92C78.78 18.82 78.45 17.55 78.49 16.26C78.44 14.94 78.78 13.63 79.46 12.5ZM83.49 18.08C83.76 18.57 84.16 18.97 84.64 19.26C85 19.47 85.4 19.61 85.82 19.66C86.23 19.71 86.65 19.68 87.06 19.58C87.46 19.46 87.84 19.28 88.17 19.02C88.5 18.76 88.77 18.44 88.98 18.08C89.27 17.52 89.42 16.89 89.41 16.26C89.42 15.62 89.27 14.99 88.98 14.42C88.71 13.93 88.31 13.52 87.82 13.24C87.34 12.97 86.79 12.83 86.23 12.83C85.68 12.83 85.13 12.97 84.64 13.24C84.16 13.53 83.76 13.93 83.49 14.42C83.18 14.99 83.03 15.62 83.04 16.26C83.03 16.89 83.18 17.52 83.49 18.08Z" fill="#000000" fill-opacity="1.000000" fill-rule="nonzero"/>
		<path id="Vector" d="M101.66 19.59C101.84 19.82 102.07 20 102.34 20.12C102.61 20.24 102.91 20.28 103.2 20.25C103.64 20.26 104.07 20.16 104.46 19.95C104.8 19.75 105.09 19.45 105.27 19.09C105.48 18.67 105.58 18.21 105.57 17.74L105.57 9.46L110.04 9.46L110.04 23.06L105.57 23.06L105.57 21.02C105.18 21.72 104.62 22.31 103.94 22.75C103.18 23.19 102.31 23.41 101.42 23.38C99.73 23.38 98.46 22.93 97.71 22C96.87 20.92 96.45 19.58 96.52 18.21L96.52 9.46L101.22 9.46L101.22 17.74C101.18 18.38 101.34 19.03 101.66 19.59Z" fill="#000000" fill-opacity="1.000000" fill-rule="nonzero"/>
		<path id="Vector" d="M116.02 19.46C116.49 19.75 116.99 19.98 117.51 20.15C117.88 20.26 118.26 20.33 118.64 20.34C119 20.37 119.36 20.26 119.64 20.04C119.75 19.95 119.83 19.83 119.89 19.69C119.95 19.56 119.97 19.42 119.97 19.27C119.98 19 119.88 18.73 119.7 18.52C119.45 18.26 119.14 18.06 118.8 17.93C118.24 17.69 117.66 17.48 117.07 17.31C116.43 17.08 115.81 16.8 115.22 16.47C114.64 16.15 114.15 15.7 113.78 15.15C113.38 14.52 113.19 13.77 113.22 13.02C113.2 12.27 113.43 11.53 113.88 10.92C114.36 10.33 114.98 9.88 115.69 9.62C116.53 9.31 117.42 9.16 118.31 9.18C119.05 9.17 119.79 9.26 120.51 9.45C121.18 9.62 121.82 9.85 122.44 10.16C123.04 10.45 123.61 10.79 124.14 11.19L122.54 14.09C121.97 13.55 121.31 13.11 120.59 12.78C119.97 12.46 119.28 12.28 118.58 12.25C118.25 12.23 117.92 12.31 117.64 12.49C117.55 12.56 117.47 12.65 117.42 12.75C117.37 12.85 117.34 12.97 117.34 13.08C117.33 13.23 117.37 13.37 117.43 13.5C117.49 13.63 117.59 13.74 117.7 13.82C118.03 14.06 118.39 14.24 118.77 14.37L120.47 15C121.15 15.25 121.81 15.54 122.44 15.89C123.01 16.2 123.51 16.64 123.89 17.16C124.28 17.77 124.47 18.48 124.44 19.2C124.49 19.82 124.4 20.44 124.17 21.01C123.94 21.59 123.58 22.1 123.12 22.51C122.02 23.33 120.67 23.73 119.3 23.65C118.39 23.66 117.47 23.54 116.59 23.31C115.78 23.09 115.01 22.79 114.27 22.4C113.58 22.02 112.91 21.59 112.29 21.11L114.15 18.15C114.73 18.64 115.36 19.08 116.02 19.46Z" fill="#000000" fill-opacity="1.000000" fill-rule="nonzero"/>
		<path id="Vector" d="M129.58 22.47C128.47 21.92 127.54 21.06 126.91 20C126.25 18.85 125.93 17.55 125.96 16.24C125.92 14.92 126.24 13.61 126.88 12.45C127.5 11.41 128.42 10.57 129.52 10.05C130.81 9.45 132.21 9.15 133.63 9.19C135 9.15 136.37 9.43 137.62 10.01C138.67 10.52 139.54 11.35 140.11 12.37C140.71 13.52 141 14.8 140.97 16.1L140.97 16.73C140.97 16.91 140.95 17.08 140.91 17.25L128.48 17.25L128.48 14.72L136.88 14.72L135.82 16.08C135.92 15.92 136 15.75 136.06 15.57C136.13 15.4 136.16 15.22 136.17 15.05C136.18 14.51 136.07 13.99 135.85 13.51C135.64 13.09 135.32 12.74 134.93 12.5C134.5 12.26 134.02 12.14 133.54 12.15C132.94 12.13 132.36 12.28 131.85 12.59C131.37 12.91 131 13.39 130.81 13.94C130.57 14.67 130.44 15.43 130.45 16.2C130.43 16.92 130.56 17.65 130.81 18.33C131.02 18.88 131.39 19.35 131.88 19.67C132.41 19.99 133.01 20.15 133.63 20.13C134.33 20.15 135.02 20 135.65 19.69C136.22 19.38 136.69 18.92 137 18.36L141 19.33C140.35 20.6 139.35 21.65 138.11 22.35C136.78 22.99 135.33 23.33 133.86 23.35C132.39 23.38 130.93 23.08 129.58 22.49L129.58 22.47Z" fill="#000000" fill-opacity="1.000000" fill-rule="nonzero"/>
		<path id="Vector" d="M60.77 36.62L54.47 36.62L49.93 40.99L49.93 26.25L60.77 36.62Z" fill="#000000" fill-opacity="1.000000" fill-rule="nonzero"/>
		<path id="Vector" d="M0 28.33L45.6 28.33L45.6 30.75L0 30.75L0 28.33Z" fill="#FF9900" fill-opacity="1.000000" fill-rule="evenodd"/>
		<path id="Vector" d="M62.57 28.33L141 28.33L141 30.75L62.57 30.75L62.57 28.33Z" fill="#FF9900" fill-opacity="1.000000" fill-rule="evenodd"/>
	</g>
</svg>
